# xmcd
#
# Track frame offsets:
# 182
# 12832
# 24992
# 37052
# 70260
# 78740
# 84477
# 99532
# 116960
# 134357
# 159550
# 173347
# 185010
# 199245
# 213475
# 228832
# 247077
#
# Disc length: 3535 seconds
#
#
# Revision: 6
# Processed by: cddbd v1.5.2PL0 Copyright (c) Steve Scherf et al.
# Submitted via: FreeRIP 2.945 
#
DISCID=e90dcd11
DTITLE=Jürgen von der Lippe - Der Blumenmann
DYEAR=1995
DGENRE=
TTITLE0=Jürgen von der Lippe - Man weiß es nicht
TTITLE1=Jürgen von der Lippe - Irrtümer
TTITLE2=Jürgen von der Lippe - Und nen Bauch hab ich auch
TTITLE3=Jürgen von der Lippe - Alkohol
TTITLE4=Jürgen von der Lippe - Nie wieder Alkohol
TTITLE5=Jürgen von der Lippe - Auto I
TTITLE6=Jürgen von der Lippe - Stress Gas
TTITLE7=Jürgen von der Lippe - Supermarkt
TTITLE8=Jürgen von der Lippe - Der Blumenmann
TTITLE9=Jürgen von der Lippe - Macho
TTITLE10=Jürgen von der Lippe - Der Lehrer
TTITLE11=Jürgen von der Lippe - Auto II
TTITLE12=Jürgen von der Lippe - Das Ding
TTITLE13=Jürgen von der Lippe - Unterschiede
TTITLE14=Jürgen von der Lippe - Komm lass das doch
TTITLE15=Jürgen von der Lippe - Helge und Peter
TTITLE16=Jürgen von der Lippe - Rock'n'Roll, Du hast mich nie geliebt
EXTD=YEAR: 1995
EXTT0=
EXTT1=
EXTT2=
EXTT3=
EXTT4=
EXTT5=
EXTT6=
EXTT7=
EXTT8=
EXTT9=
EXTT10=
EXTT11=
EXTT12=
EXTT13=
EXTT14=
EXTT15=
EXTT16=
PLAYORDER=
